<?xml version="1.0" standalone="no"?>
<!DOCTYPE svg PUBLIC "-//W3C//DTD SVG 20010904//EN"
 "http://www.w3.org/TR/2001/REC-SVG-20010904/DTD/svg10.dtd">
<svg version="1.0" xmlns="http://www.w3.org/2000/svg"
 width="1728.000000pt" height="862.000000pt" viewBox="0 0 1728.000000 862.000000"
 preserveAspectRatio="xMidYMid meet">
<metadata>
Created by potrace 1.14, written by Peter Selinger 2001-2017
</metadata>
<g transform="translate(0.000000,862.000000) scale(0.100000,-0.100000)"
fill="#000000" stroke="none">
<path d="M5720 7250 c-264 -32 -633 -208 -1090 -518 -527 -358 -1214 -931
-1853 -1544 l-198 -191 -667 -167 c-568 -143 -683 -174 -772 -214 -354 -158
-616 -371 -735 -597 -73 -140 -75 -157 -75 -748 l0 -526 -47 -25 c-268 -142
-368 -661 -186 -969 71 -120 200 -213 363 -262 75 -23 78 -23 796 -27 l720 -3
28 -87 c63 -192 181 -377 332 -522 184 -175 384 -280 645 -336 117 -25 371
-25 488 0 261 56 461 161 645 336 152 145 269 330 332 523 l28 87 1492 0 1492
0 26 -80 c104 -322 347 -603 654 -755 306 -151 655 -174 984 -65 374 125 686
440 805 812 l28 88 365 0 c404 0 467 7 623 68 174 68 338 200 442 357 68 103
86 139 129 263 74 212 79 264 84 757 9 1012 -67 1661 -231 1980 -40 78 -159
195 -442 439 -1075 923 -2142 1634 -2779 1851 -246 84 -162 79 -1326 81 -569
1 -1064 -2 -1100 -6z m730 -1519 c0 -487 -1 -885 -3 -886 -1 -2 -2615 -138
-3106 -162 -77 -4 -112 -3 -110 4 6 16 355 349 606 578 746 682 1366 1148
1715 1290 156 64 158 64 546 62 l352 -2 0 -884z m1159 873 c323 -48 748 -196
1216 -423 502 -245 810 -454 961 -654 118 -157 162 -320 112 -417 -25 -49 -71
-85 -127 -99 -20 -5 -256 -19 -526 -30 -269 -12 -845 -40 -1280 -61 -434 -22
-808 -40 -832 -40 l-43 0 0 870 0 870 206 0 c136 0 243 -5 313 -16z m-4171
-4216 c446 -160 577 -731 244 -1063 -105 -104 -227 -165 -375 -186 -320 -47
-645 181 -712 497 -55 260 52 529 267 676 124 83 214 108 378 105 105 -3 137
-7 198 -29z m5427 17 c115 -29 203 -81 296 -174 132 -132 189 -268 189 -453 0
-283 -172 -522 -441 -612 -162 -54 -326 -42 -489 36 -68 33 -101 57 -165 122
-121 122 -179 245 -191 411 -15 194 70 399 218 529 65 57 187 121 265 140 79
19 244 20 318 1z"/>
<path d="M16365 6678 c-13 -62 -76 -333 -80 -349 -4 -13 14 -23 82 -48 265
-94 437 -289 500 -563 25 -110 22 -319 -6 -423 -86 -321 -341 -549 -675 -606
-108 -18 -319 -6 -446 26 -144 36 -202 26 -268 -49 -52 -59 -63 -126 -36 -211
23 -70 23 -258 0 -345 -49 -186 -173 -348 -322 -422 -77 -38 -91 -41 -181 -46
-97 -4 -104 -3 -713 136 -338 78 -650 146 -693 151 -169 23 -357 10 -502 -36
-287 -91 -486 -290 -592 -593 -30 -84 -170 -677 -162 -684 7 -7 388 -90 392
-85 3 2 36 144 76 314 85 369 112 438 213 539 111 110 238 152 438 143 123 -5
194 -20 985 -205 l370 -86 155 -1 c132 0 167 3 233 23 161 46 274 112 399 230
189 181 299 419 333 723 l6 57 187 5 c158 4 203 9 292 31 457 116 796 450 910
897 19 75 21 104 18 338 -4 245 -5 260 -31 346 -98 321 -294 562 -576 709 -82
42 -270 116 -296 116 -2 0 -6 -15 -10 -32z"/>
<path d="M15425 6444 c-359 -36 -645 -164 -870 -389 -191 -191 -317 -434 -371
-715 -21 -110 -24 -365 -6 -469 6 -36 10 -67 8 -69 -2 -2 -96 17 -208 42 -248
55 -382 70 -553 63 -244 -11 -441 -63 -670 -177 -397 -197 -727 -580 -885
-1025 -32 -89 -233 -936 -224 -944 7 -7 386 -92 391 -87 2 2 47 188 98 413
104 451 121 506 207 674 233 456 673 739 1150 739 140 0 211 -12 622 -106 351
-81 372 -84 419 -73 88 21 156 105 157 194 0 22 -16 85 -36 140 -132 370 -102
706 89 990 182 270 542 424 904 385 60 -6 115 -13 124 -16 13 -3 24 30 61 193
25 109 44 199 43 201 -16 19 -353 46 -450 36z"/>
</g>
</svg>
